<svg width="30" height="30" viewBox="0 0 30 30" fill="none" xmlns="http://www.w3.org/2000/svg">
<path d="M0.789497 17.3684C0.355263 17.3684 0 17.7237 0 18.1578C0 18.5921 0.355263 18.9473 0.789497 18.9473C1.22373 18.9473 1.57899 18.5921 1.57899 18.1578C1.57892 17.7237 1.22366 17.3684 0.789497 17.3684ZM0.789497 11.0526C0.355263 11.0526 0 11.4079 0 11.8421C0 12.2763 0.355263 12.6316 0.789497 12.6316C1.22373 12.6316 1.57899 12.2763 1.57899 11.8421C1.57892 11.4079 1.22366 11.0526 0.789497 11.0526ZM11.8421 28.421C11.4079 28.421 11.0526 28.7763 11.0526 29.2105C11.0526 29.6447 11.4079 30 11.8421 30C12.2763 30 12.6316 29.6447 12.6316 29.2105C12.6316 28.7763 12.2763 28.421 11.8421 28.421ZM5.52633 3.94734C4.65794 3.94734 3.94741 4.65786 3.94741 5.52626C3.94741 6.39465 4.65786 7.10525 5.52633 7.10525C6.3948 7.10525 7.10525 6.39473 7.10525 5.52633C7.10525 4.65794 6.39473 3.94734 5.52633 3.94734ZM5.52633 10.2632C4.65794 10.2632 3.94741 10.9737 3.94741 11.8421C3.94741 12.7105 4.65794 13.421 5.52633 13.421C6.39473 13.421 7.10525 12.7105 7.10525 11.8421C7.10525 10.9737 6.39473 10.2632 5.52633 10.2632ZM5.52633 16.5789C4.65794 16.5789 3.94741 17.2894 3.94741 18.1578C3.94741 19.0262 4.65794 19.7368 5.52633 19.7368C6.39473 19.7368 7.10525 19.0263 7.10525 18.1578C7.10525 17.2894 6.39473 16.5789 5.52633 16.5789ZM29.2105 12.6316C29.6447 12.6316 30 12.2763 30 11.8421C30 11.4079 29.6447 11.0526 29.2105 11.0526C28.7763 11.0526 28.421 11.4079 28.421 11.8421C28.421 12.2763 28.7763 12.6316 29.2105 12.6316ZM18.1578 1.57892C18.5921 1.57892 18.9473 1.22366 18.9473 0.789423C18.9473 0.355263 18.5921 0 18.1578 0C17.7236 0 17.3683 0.355263 17.3683 0.789497C17.3684 1.22366 17.7237 1.57892 18.1578 1.57892ZM11.8421 7.10525C12.7105 7.10525 13.421 6.39473 13.421 5.52633C13.421 4.65794 12.7105 3.94741 11.8421 3.94741C10.9737 3.94741 10.2632 4.65794 10.2632 5.52633C10.2632 6.39473 10.9737 7.10525 11.8421 7.10525ZM11.8421 1.57892C12.2763 1.57892 12.6316 1.22366 12.6316 0.789423C12.6316 0.355263 12.2763 0 11.8421 0C11.4079 0 11.0526 0.355263 11.0526 0.789497C11.0526 1.22366 11.4079 1.57892 11.8421 1.57892ZM18.1578 7.10525C19.0262 7.10525 19.7368 6.39473 19.7368 5.52633C19.7368 4.65794 19.0262 3.94741 18.1578 3.94741C17.2894 3.94741 16.5789 4.65794 16.5789 5.52633C16.5789 6.39473 17.2894 7.10525 18.1578 7.10525ZM5.52633 22.8947C4.65794 22.8947 3.94741 23.6052 3.94741 24.4736C3.94741 25.342 4.65794 26.0525 5.52633 26.0525C6.39473 26.0525 7.10525 25.3421 7.10525 24.4737C7.10525 23.6052 6.39473 22.8947 5.52633 22.8947ZM18.1578 9.47367C16.8473 9.47367 15.7894 10.5315 15.7894 11.8421C15.7894 13.1526 16.8473 14.2105 18.1578 14.2105C19.4684 14.2105 20.5263 13.1526 20.5263 11.8421C20.5263 10.5315 19.4684 9.47367 18.1578 9.47367ZM24.4737 16.5789C23.6053 16.5789 22.8947 17.2894 22.8947 18.1578C22.8947 19.0262 23.6053 19.7368 24.4737 19.7368C25.3421 19.7368 26.0526 19.0262 26.0526 18.1578C26.0526 17.2894 25.3421 16.5789 24.4737 16.5789ZM24.4737 22.8947C23.6053 22.8947 22.8947 23.6052 22.8947 24.4736C22.8947 25.342 23.6053 26.0525 24.4737 26.0525C25.3421 26.0526 26.0526 25.3421 26.0526 24.4737C26.0526 23.6052 25.3421 22.8947 24.4737 22.8947ZM24.4737 10.2632C23.6053 10.2632 22.8947 10.9737 22.8947 11.8421C22.8947 12.7105 23.6053 13.421 24.4737 13.421C25.3421 13.421 26.0526 12.7105 26.0526 11.8421C26.0526 10.9737 25.3421 10.2632 24.4737 10.2632ZM29.2105 17.3684C28.7763 17.3684 28.421 17.7237 28.421 18.1579C28.421 18.5921 28.7763 18.9473 29.2105 18.9473C29.6447 18.9473 30 18.5921 30 18.1578C29.9999 17.7237 29.6447 17.3684 29.2105 17.3684ZM24.4737 3.94734C23.6053 3.94734 22.8947 4.65786 22.8947 5.52626C22.8947 6.39465 23.6052 7.10525 24.4737 7.10525C25.3421 7.10525 26.0526 6.39473 26.0526 5.52633C26.0526 4.65794 25.3421 3.94734 24.4737 3.94734ZM11.8421 15.7894C10.5315 15.7894 9.47367 16.8473 9.47367 18.1578C9.47367 19.4684 10.5315 20.5263 11.8421 20.5263C13.1526 20.5263 14.2105 19.4684 14.2105 18.1578C14.2105 16.8473 13.1526 15.7894 11.8421 15.7894ZM11.8421 22.8947C10.9737 22.8947 10.2632 23.6052 10.2632 24.4736C10.2632 25.342 10.9737 26.0525 11.8421 26.0525C12.7105 26.0525 13.421 25.342 13.421 24.4736C13.421 23.6052 12.7105 22.8947 11.8421 22.8947ZM11.8421 9.47367C10.5315 9.47367 9.47367 10.5315 9.47367 11.8421C9.47367 13.1526 10.5315 14.2105 11.8421 14.2105C13.1526 14.2105 14.2105 13.1526 14.2105 11.8421C14.2105 10.5315 13.1526 9.47367 11.8421 9.47367ZM18.1578 22.8947C17.2894 22.8947 16.5789 23.6052 16.5789 24.4736C16.5789 25.3421 17.2894 26.0526 18.1578 26.0526C19.0262 26.0526 19.7368 25.3421 19.7368 24.4737C19.7368 23.6052 19.0263 22.8947 18.1578 22.8947ZM18.1578 28.421C17.7236 28.421 17.3683 28.7763 17.3683 29.2105C17.3683 29.6447 17.7236 30 18.1578 30C18.5921 30 18.9473 29.6447 18.9473 29.2105C18.9473 28.7763 18.5921 28.421 18.1578 28.421ZM18.1578 15.7894C16.8473 15.7894 15.7894 16.8473 15.7894 18.1578C15.7894 19.4684 16.8473 20.5263 18.1578 20.5263C19.4684 20.5263 20.5263 19.4684 20.5263 18.1578C20.5263 16.8473 19.4684 15.7894 18.1578 15.7894Z" fill="white"/>
</svg>
