<svg width="122" height="122" viewBox="0 0 122 122" fill="none" xmlns="http://www.w3.org/2000/svg">
<path d="M45.75 61H76.25M61 45.75V76.25M15.25 25.4167C15.25 22.7203 16.3211 20.1344 18.2277 18.2277C20.1344 16.3211 22.7203 15.25 25.4167 15.25H96.5833C99.2797 15.25 101.866 16.3211 103.772 18.2277C105.679 20.1344 106.75 22.7203 106.75 25.4167V96.5833C106.75 99.2797 105.679 101.866 103.772 103.772C101.866 105.679 99.2797 106.75 96.5833 106.75H25.4167C22.7203 106.75 20.1344 105.679 18.2277 103.772C16.3211 101.866 15.25 99.2797 15.25 96.5833V25.4167Z" stroke="black" stroke-width="4" stroke-linecap="round" stroke-linejoin="round"/>
</svg>
