<svg width="200" height="200" viewBox="0 0 200 200" fill="none" xmlns="http://www.w3.org/2000/svg">
<g filter="url(#filter0_di_559_272)">
<rect x="10" y="10" width="180" height="180" rx="32" fill="#6A2EFD"/>
</g>
<path d="M133 82.5V117.5C133 121.64 129.64 125 125.5 125C121.36 125 118 121.64 118 117.5V82.5C118 78.36 121.36 75 125.5 75C129.64 75 133 78.36 133 82.5ZM100.5 40C96.36 40 93 43.36 93 47.5V152.5C93 156.64 96.36 160 100.5 160C104.64 160 108 156.64 108 152.5V47.5C108 43.36 104.64 40 100.5 40ZM150.5 60C146.36 60 143 63.36 143 67.5V132.5C143 136.64 146.36 140 150.5 140C154.64 140 158 136.64 158 132.5V67.5C158 63.36 154.64 60 150.5 60ZM75.5 65C71.36 65 68 68.36 68 72.5V127.5C68 131.64 71.36 135 75.5 135C79.64 135 83 131.64 83 127.5V72.5C83 68.36 79.64 65 75.5 65ZM50.5 85C46.36 85 43 88.36 43 92.5V107.5C43 111.64 46.36 115 50.5 115C54.64 115 58 111.64 58 107.5V92.5C58 88.36 54.64 85 50.5 85Z" fill="white"/>
<defs>
<filter id="filter0_di_559_272" x="10" y="10" width="188" height="188" filterUnits="userSpaceOnUse" color-interpolation-filters="sRGB">
<feFlood flood-opacity="0" result="BackgroundImageFix"/>
<feColorMatrix in="SourceAlpha" type="matrix" values="0 0 0 0 0 0 0 0 0 0 0 0 0 0 0 0 0 0 127 0" result="hardAlpha"/>
<feOffset dx="4" dy="4"/>
<feGaussianBlur stdDeviation="2"/>
<feComposite in2="hardAlpha" operator="out"/>
<feColorMatrix type="matrix" values="0 0 0 0 0 0 0 0 0 0 0 0 0 0 0 0 0 0 0.17 0"/>
<feBlend mode="normal" in2="BackgroundImageFix" result="effect1_dropShadow_559_272"/>
<feBlend mode="normal" in="SourceGraphic" in2="effect1_dropShadow_559_272" result="shape"/>
<feColorMatrix in="SourceAlpha" type="matrix" values="0 0 0 0 0 0 0 0 0 0 0 0 0 0 0 0 0 0 127 0" result="hardAlpha"/>
<feOffset dx="4" dy="4"/>
<feGaussianBlur stdDeviation="2"/>
<feComposite in2="hardAlpha" operator="arithmetic" k2="-1" k3="1"/>
<feColorMatrix type="matrix" values="0 0 0 0 0 0 0 0 0 0 0 0 0 0 0 0 0 0 0.25 0"/>
<feBlend mode="normal" in2="shape" result="effect2_innerShadow_559_272"/>
</filter>
</defs>
</svg>
