<svg width="30" height="30" viewBox="0 0 30 30" fill="none" xmlns="http://www.w3.org/2000/svg">
<path d="M11.25 18.7496L18.75 11.2496M13.75 7.49941L14.3288 6.82941C15.501 5.65731 17.0909 4.99891 18.7486 4.99902C20.4063 4.99914 21.996 5.65777 23.1681 6.83003C24.3402 8.00229 24.9986 9.59214 24.9985 11.2498C24.9984 12.9076 24.3398 14.4973 23.1675 15.6694L22.5 16.2494M16.2502 22.4996L15.7539 23.1671C14.568 24.3399 12.9674 24.9976 11.2996 24.9976C9.63169 24.9976 8.03112 24.3399 6.84518 23.1671C6.26062 22.5891 5.79655 21.9009 5.47982 21.1423C5.16309 20.3837 5 19.5698 5 18.7478C5 17.9257 5.16309 17.1118 5.47982 16.3532C5.79655 15.5946 6.26062 14.9064 6.84518 14.3284L7.50018 13.7496" stroke="white" stroke-width="2" stroke-linecap="round" stroke-linejoin="round"/>
</svg>
