<svg width="16" height="16" viewBox="0 0 16 16" fill="none" xmlns="http://www.w3.org/2000/svg">
<path d="M4.33333 5C4.33333 5.17681 4.40357 5.34638 4.5286 5.4714C4.65362 5.59643 4.82319 5.66667 5 5.66667C5.17681 5.66667 5.34638 5.59643 5.4714 5.4714C5.59643 5.34638 5.66667 5.17681 5.66667 5C5.66667 4.82319 5.59643 4.65362 5.4714 4.5286C5.34638 4.40357 5.17681 4.33333 5 4.33333C4.82319 4.33333 4.65362 4.40357 4.5286 4.5286C4.40357 4.65362 4.33333 4.82319 4.33333 5Z" stroke="black" stroke-linecap="round" stroke-linejoin="round"/>
<path d="M2 4V7.448C2.00008 7.80159 2.1406 8.14068 2.39067 8.39067L7.53067 13.5307C7.83197 13.8319 8.24059 14.0012 8.66667 14.0012C9.09274 14.0012 9.50137 13.8319 9.80267 13.5307L13.5307 9.80267C13.8319 9.50137 14.0012 9.09274 14.0012 8.66667C14.0012 8.24059 13.8319 7.83197 13.5307 7.53067L8.39067 2.39067C8.14068 2.1406 7.80159 2.00008 7.448 2H4C3.46957 2 2.96086 2.21071 2.58579 2.58579C2.21071 2.96086 2 3.46957 2 4Z" stroke="black" stroke-linecap="round" stroke-linejoin="round"/>
</svg>
