<svg width="256" height="76" viewBox="0 0 256 76" fill="none" xmlns="http://www.w3.org/2000/svg">
<path d="M1.42109 43.2632C0.639473 43.2632 0 43.9026 0 44.6841C0 45.4657 0.639473 46.1052 1.42109 46.1052C2.20272 46.1052 2.84219 45.4657 2.84219 44.6841C2.84206 43.9026 2.20258 43.2632 1.42109 43.2632ZM1.42109 31.8947C0.639473 31.8947 0 32.5341 0 33.3158C0 34.0974 0.639473 34.7368 1.42109 34.7368C2.20272 34.7368 2.84219 34.0974 2.84219 33.3158C2.84206 32.5341 2.20258 31.8947 1.42109 31.8947ZM21.3158 63.1578C20.5341 63.1578 19.8947 63.7973 19.8947 64.5789C19.8947 65.3605 20.5341 66 21.3158 66C22.0974 66 22.7368 65.3605 22.7368 64.5789C22.7368 63.7973 22.0974 63.1578 21.3158 63.1578ZM9.9474 19.1052C8.38428 19.1052 7.10534 20.3842 7.10534 21.9473C7.10534 23.5104 8.38415 24.7895 9.9474 24.7895C11.5106 24.7895 12.7895 23.5105 12.7895 21.9474C12.7895 20.3843 11.5105 19.1052 9.9474 19.1052ZM9.9474 30.4737C8.38428 30.4737 7.10534 31.7526 7.10534 33.3158C7.10534 34.8789 8.38428 36.1578 9.9474 36.1578C11.5105 36.1578 12.7895 34.8789 12.7895 33.3158C12.7895 31.7526 11.5105 30.4737 9.9474 30.4737ZM9.9474 41.8421C8.38428 41.8421 7.10534 43.121 7.10534 44.6841C7.10534 46.2472 8.38428 47.5262 9.9474 47.5262C11.5105 47.5262 12.7895 46.2474 12.7895 44.6841C12.7895 43.121 11.5105 41.8421 9.9474 41.8421ZM52.5789 34.7368C53.3605 34.7368 54 34.0974 54 33.3158C54 32.5341 53.3605 31.8947 52.5789 31.8947C51.7973 31.8947 51.1578 32.5341 51.1578 33.3158C51.1578 34.0974 51.7973 34.7368 52.5789 34.7368ZM32.6841 14.8421C33.4657 14.8421 34.1052 14.2026 34.1052 13.421C34.1052 12.6395 33.4657 12 32.6841 12C31.9025 12 31.263 12.6395 31.263 13.4211C31.2631 14.2026 31.9026 14.8421 32.6841 14.8421ZM21.3158 24.7895C22.8789 24.7895 24.1578 23.5105 24.1578 21.9474C24.1578 20.3843 22.8789 19.1053 21.3158 19.1053C19.7526 19.1053 18.4737 20.3843 18.4737 21.9474C18.4737 23.5105 19.7526 24.7895 21.3158 24.7895ZM21.3158 14.8421C22.0974 14.8421 22.7368 14.2026 22.7368 13.421C22.7368 12.6395 22.0974 12 21.3158 12C20.5341 12 19.8947 12.6395 19.8947 13.4211C19.8947 14.2026 20.5341 14.8421 21.3158 14.8421ZM32.6841 24.7895C34.2472 24.7895 35.5262 23.5105 35.5262 21.9474C35.5262 20.3843 34.2472 19.1053 32.6841 19.1053C31.121 19.1053 29.8421 20.3843 29.8421 21.9474C29.8421 23.5105 31.121 24.7895 32.6841 24.7895ZM9.9474 53.2104C8.38428 53.2104 7.10534 54.4894 7.10534 56.0525C7.10534 57.6156 8.38428 58.8945 9.9474 58.8945C11.5105 58.8945 12.7895 57.6157 12.7895 56.0526C12.7895 54.4894 11.5105 53.2104 9.9474 53.2104ZM32.6841 29.0526C30.3251 29.0526 28.421 30.9568 28.421 33.3158C28.421 35.6747 30.3251 37.5789 32.6841 37.5789C35.0431 37.5789 36.9473 35.6747 36.9473 33.3158C36.9473 30.9568 35.0431 29.0526 32.6841 29.0526ZM44.0526 41.8421C42.4895 41.8421 41.2105 43.121 41.2105 44.6841C41.2105 46.2472 42.4895 47.5262 44.0526 47.5262C45.6157 47.5262 46.8947 46.2472 46.8947 44.6841C46.8947 43.121 45.6157 41.8421 44.0526 41.8421ZM44.0526 53.2104C42.4895 53.2104 41.2105 54.4894 41.2105 56.0525C41.2105 57.6156 42.4895 58.8945 44.0526 58.8945C45.6157 58.8947 46.8947 57.6157 46.8947 56.0526C46.8947 54.4894 45.6157 53.2104 44.0526 53.2104ZM44.0526 30.4737C42.4895 30.4737 41.2105 31.7526 41.2105 33.3158C41.2105 34.8789 42.4895 36.1578 44.0526 36.1578C45.6157 36.1578 46.8947 34.8789 46.8947 33.3158C46.8947 31.7526 45.6157 30.4737 44.0526 30.4737ZM52.5789 43.2632C51.7973 43.2632 51.1578 43.9026 51.1578 44.6842C51.1578 45.4657 51.7973 46.1052 52.5789 46.1052C53.3605 46.1052 54 45.4657 54 44.6841C53.9999 43.9026 53.3604 43.2632 52.5789 43.2632ZM44.0526 19.1052C42.4895 19.1052 41.2105 20.3842 41.2105 21.9473C41.2105 23.5104 42.4894 24.7895 44.0526 24.7895C45.6157 24.7895 46.8947 23.5105 46.8947 21.9474C46.8947 20.3843 45.6157 19.1052 44.0526 19.1052ZM21.3158 40.421C18.9568 40.421 17.0526 42.3251 17.0526 44.6841C17.0526 47.0431 18.9568 48.9473 21.3158 48.9473C23.6747 48.9473 25.5789 47.0431 25.5789 44.6841C25.5789 42.3251 23.6747 40.421 21.3158 40.421ZM21.3158 53.2104C19.7526 53.2104 18.4737 54.4894 18.4737 56.0525C18.4737 57.6156 19.7526 58.8945 21.3158 58.8945C22.8789 58.8945 24.1578 57.6156 24.1578 56.0525C24.1578 54.4894 22.8789 53.2104 21.3158 53.2104ZM21.3158 29.0526C18.9568 29.0526 17.0526 30.9568 17.0526 33.3158C17.0526 35.6747 18.9568 37.5789 21.3158 37.5789C23.6747 37.5789 25.5789 35.6747 25.5789 33.3158C25.5789 30.9568 23.6747 29.0526 21.3158 29.0526ZM32.6841 53.2104C31.121 53.2104 29.8421 54.4894 29.8421 56.0525C29.8421 57.6157 31.121 58.8947 32.6841 58.8947C34.2472 58.8947 35.5262 57.6157 35.5262 56.0526C35.5263 54.4894 34.2474 53.2104 32.6841 53.2104ZM32.6841 63.1578C31.9025 63.1578 31.263 63.7973 31.263 64.5789C31.263 65.3605 31.9025 66 32.6841 66C33.4657 66 34.1052 65.3605 34.1052 64.5789C34.1052 63.7973 33.4657 63.1578 32.6841 63.1578ZM32.6841 40.421C30.3251 40.421 28.421 42.3251 28.421 44.6841C28.421 47.0431 30.3251 48.9473 32.6841 48.9473C35.0431 48.9473 36.9473 47.0431 36.9473 44.6841C36.9473 42.3251 35.0431 40.421 32.6841 40.421Z" fill="white"/>
<path d="M73.1897 60V16.6H88.9997C91.2937 16.6 93.3604 17.0753 95.1997 18.026C97.0597 18.956 98.5271 20.2993 99.6017 22.056C100.697 23.792 101.245 25.8483 101.245 28.225C101.245 29.279 101.09 30.3433 100.78 31.418C100.47 32.4927 99.9944 33.464 99.3537 34.332C98.7131 35.1793 97.8864 35.8097 96.8737 36.223C98.2171 36.5537 99.3124 37.153 100.16 38.021C101.007 38.889 101.668 39.912 102.144 41.09C102.619 42.2473 102.939 43.4357 103.105 44.655C103.291 45.8537 103.384 46.9697 103.384 48.003C103.384 50.297 102.815 52.343 101.679 54.141C100.542 55.939 99.0127 57.365 97.0907 58.419C95.1894 59.473 93.0814 60 90.7667 60H73.1897ZM80.7537 53.521H89.9917C91.2317 53.521 92.3477 53.2213 93.3397 52.622C94.3317 52.0227 95.1274 51.196 95.7267 50.142C96.3261 49.088 96.6257 47.8893 96.6257 46.546C96.6257 45.3887 96.3261 44.2933 95.7267 43.26C95.1274 42.2267 94.3317 41.3897 93.3397 40.749C92.3477 40.1083 91.2317 39.788 89.9917 39.788H80.7537V53.521ZM80.7537 33.402H88.1317C89.6611 33.402 90.9631 32.9267 92.0377 31.976C93.1331 31.0253 93.6807 29.7647 93.6807 28.194C93.6807 26.52 93.1331 25.2593 92.0377 24.412C90.9631 23.544 89.6611 23.11 88.1317 23.11H80.7537V33.402ZM108.428 60V16.6H115.992V52.436H134.065V60H108.428ZM156.516 60.806C153.044 60.806 149.996 59.9587 147.371 58.264C144.767 56.5693 142.742 54.296 141.295 51.444C139.849 48.5713 139.125 45.3887 139.125 41.896V16.6H146.689V41.896C146.689 43.9627 147.072 45.864 147.836 47.6C148.622 49.3153 149.738 50.6897 151.184 51.723C152.652 52.7357 154.429 53.242 156.516 53.242C158.624 53.242 160.402 52.7357 161.848 51.723C163.295 50.6897 164.39 49.3153 165.134 47.6C165.899 45.864 166.281 43.9627 166.281 41.896V16.6H173.845V41.896C173.845 44.5207 173.432 46.98 172.605 49.274C171.779 51.5473 170.601 53.552 169.071 55.288C167.542 57.024 165.713 58.3777 163.584 59.349C161.476 60.3203 159.12 60.806 156.516 60.806ZM180.539 60V16.6H197.186C199.542 16.6 201.671 17.189 203.572 18.367C205.474 19.545 206.982 21.126 208.098 23.11C209.214 25.0733 209.772 27.2537 209.772 29.651C209.772 31.6143 209.411 33.4227 208.687 35.076C207.985 36.7087 206.993 38.1243 205.711 39.323C204.451 40.5217 202.994 41.431 201.34 42.051L211.725 60H203.014L192.97 42.733H188.103V60H180.539ZM188.103 35.169H196.318C197.393 35.169 198.375 34.9003 199.263 34.363C200.152 33.8257 200.865 33.1023 201.402 32.193C201.94 31.2837 202.208 30.271 202.208 29.155C202.208 28.0183 201.94 26.9953 201.402 26.086C200.865 25.1767 200.152 24.4533 199.263 23.916C198.375 23.3787 197.393 23.11 196.318 23.11H188.103V35.169ZM217.594 60V16.6H231.978C234.975 16.6 237.775 17.1683 240.379 18.305C243.004 19.421 245.308 20.9813 247.292 22.986C249.297 24.97 250.857 27.2743 251.973 29.899C253.11 32.503 253.678 35.3033 253.678 38.3C253.678 41.2967 253.11 44.1073 251.973 46.732C250.857 49.336 249.297 51.6403 247.292 53.645C245.308 55.629 243.004 57.1893 240.379 58.326C237.775 59.442 234.975 60 231.978 60H217.594ZM225.158 52.436H231.978C233.9 52.436 235.708 52.0743 237.403 51.351C239.118 50.607 240.627 49.5943 241.929 48.313C243.231 47.011 244.254 45.5127 244.998 43.818C245.742 42.1027 246.114 40.2633 246.114 38.3C246.114 36.3367 245.742 34.5077 244.998 32.813C244.254 31.1183 243.231 29.62 241.929 28.318C240.627 27.016 239.129 26.0033 237.434 25.28C235.739 24.536 233.921 24.164 231.978 24.164H225.158V52.436Z" fill="white"/>
</svg>
