<svg width="34" height="34" viewBox="0 0 34 34" fill="none" xmlns="http://www.w3.org/2000/svg">
<g clip-path="url(#clip0_269_325)">
<path d="M17 0C26.3885 0 34 7.61148 34 17C34 26.3885 26.3885 34 17 34C7.61148 34 0 26.3885 0 17C0 7.61148 7.61148 0 17 0ZM14.4573 25.0664V17.3274H13.3643C13.0322 17.3274 12.7633 17.0578 12.7633 16.7264V14.276C12.7633 13.946 13.0336 13.6757 13.3643 13.6757H14.4573V11.7054C14.4573 9.84273 15.968 8.33266 17.8307 8.33266H20.6357C20.9678 8.33266 21.2367 8.6016 21.2367 8.93363V11.3834C21.2367 11.7154 20.9678 11.9843 20.6357 11.9843H18.9756C18.7863 11.9843 18.6303 12.1404 18.6303 12.3296V13.677L20.5992 13.6757C20.9313 13.6989 21.2002 13.9227 21.2002 14.276C21.1418 15.1061 21.0607 15.9448 20.9904 16.7762C20.9645 17.0863 20.7035 17.3274 20.392 17.3274H18.6303V25.0664C18.6303 25.3964 18.3607 25.6667 18.03 25.6667L15.0583 25.6673C14.7269 25.6673 14.4573 25.3977 14.4573 25.0664ZM15.2422 24.8838H17.8454V16.5425H20.2234L20.3993 14.4586H17.8454V12.3296C17.8454 11.7054 18.3514 11.1994 18.9756 11.1994H20.4518V9.11758H17.8307C16.401 9.11758 15.2422 10.2764 15.2422 11.7054V14.46H13.5482V16.5425H15.2422V24.8838ZM17 0.784258C8.04445 0.784258 0.784258 8.04445 0.784258 17C0.784258 25.9555 8.04445 33.2157 17 33.2157C25.9555 33.2157 33.2157 25.9555 33.2157 17C33.2157 8.04445 25.9555 0.784258 17 0.784258Z" fill="white"/>
</g>
<defs>
<clipPath id="clip0_269_325">
<rect width="34" height="34" fill="white"/>
</clipPath>
</defs>
</svg>
