<svg width="34" height="34" viewBox="0 0 34 34" fill="none" xmlns="http://www.w3.org/2000/svg">
<path d="M17 34C7.62987 34 0 26.3704 0 17C0 7.62994 7.62987 6.42244e-05 17 6.42244e-05C19.2334 -0.00609464 21.4459 0.430764 23.5094 1.28536C25.5729 2.13995 27.4464 3.39531 29.0215 4.97878L29.5981 5.55533L23.8709 11.2728L23.294 10.6959C20.5649 7.97145 16.3922 7.31339 12.9569 9.06537C9.52157 10.8174 7.60437 14.5819 8.20764 18.3907C8.81069 22.1996 11.7971 25.1873 15.6057 25.7923C19.4143 26.3974 23.1796 24.4823 24.9334 21.0478H16.1903V12.9525H33.5244L33.6561 13.6C33.8841 14.719 33.9993 15.858 33.9999 17C33.9999 26.3704 26.3704 34 17 34ZM17 1.61931C8.52017 1.61931 1.61894 8.52023 1.61894 17C1.61894 25.4798 8.52017 32.381 17 32.381C25.4798 32.381 32.381 25.4798 32.381 17C32.3804 16.1867 32.3161 15.3747 32.1886 14.5715H17.8096V19.4286H27.3012L26.9167 20.5113C25.3751 24.8577 21.1832 27.6941 16.5751 27.5085C11.9673 27.3232 8.01708 24.1594 6.82943 19.7031C5.64186 15.2471 7.4941 10.537 11.3984 8.08317C15.3031 5.62918 20.3505 6.00333 23.8505 9.0061L27.2912 5.56573C24.4718 3.01476 20.8021 1.60751 17 1.61931Z" fill="white"/>
</svg>
